<?xml version="1.0" encoding="UTF-8"?>
<svg xmlns="http://www.w3.org/2000/svg" width="60" height="380" viewBox="0 0 60 380">
  <defs>
    <radialGradient id="jackMetal" cx="50%" cy="40%" r="60%">
      <stop offset="0%" stop-color="#f3f6f8"/>
      <stop offset="55%" stop-color="#c6cdd3"/>
      <stop offset="100%" stop-color="#8e959c"/>
    </radialGradient>
    <radialGradient id="jackHole" cx="50%" cy="50%" r="65%">
      <stop offset="0%" stop-color="#cfd4f2"/>
      <stop offset="85%" stop-color="#aab0d5"/>
      <stop offset="100%" stop-color="#989fc4"/>
    </radialGradient>
  </defs>

  <rect x="0" y="0" width="60" height="380" fill="#0f1012"/>
  <rect x="1" y="1" width="58" height="378" fill="#141518" stroke="#2a2d31" stroke-width="1"/>

  <!-- Top and bottom slots -->
  <rect x="6" y="6" width="18" height="10" rx="5" fill="#090a0c" stroke="#1a1d21" stroke-width="1"/>
  <rect x="6" y="364" width="18" height="10" rx="5" fill="#090a0c" stroke="#1a1d21" stroke-width="1"/>

  <!-- Header -->
  <text x="27" y="14" font-size="5.5" font-family="Arial, Helvetica, sans-serif" fill="#ffffff" font-weight="700">KRONO</text>
  <path d="M41 17 C45 14, 48 15, 52 18 C47 18, 45 19, 40 22" fill="none" stroke="#ffffff" stroke-width="0.8"/>
  <text x="8.5" y="33" font-size="6" font-family="Arial, Helvetica, sans-serif" fill="#ffffff" font-weight="700">TAP</text>
  <text x="32.5" y="33" font-size="6" font-family="Arial, Helvetica, sans-serif" fill="#ffffff" font-weight="700">MOD</text>

  <!-- Top buttons -->
  <circle cx="15.2" cy="44.5" r="6.3" fill="#2d3138" stroke="#1d2025" stroke-width="1.2"/>
  <circle cx="15.2" cy="44.5" r="3.6" fill="#fafbfd"/>
  <circle cx="41.0" cy="44.5" r="6.3" fill="#2d3138" stroke="#1d2025" stroke-width="1.2"/>
  <circle cx="41.0" cy="44.5" r="3.6" fill="#fafbfd"/>
  <circle cx="15.2" cy="51.7" r="2.2" fill="#cb1e27" stroke="#3a0c10" stroke-width="0.7"/>
  <circle cx="41.0" cy="51.7" r="2.2" fill="#cb1e27" stroke="#3a0c10" stroke-width="0.7"/>

  <!-- Top inputs -->
  <g>
    <circle cx="15.2" cy="62.5" r="8.3" fill="url(#jackMetal)" stroke="#e7edf0" stroke-width="1"/>
    <circle cx="15.2" cy="62.5" r="4.7" fill="#4b545e"/>
    <circle cx="41.0" cy="62.5" r="8.3" fill="url(#jackMetal)" stroke="#e7edf0" stroke-width="1"/>
    <circle cx="41.0" cy="62.5" r="4.7" fill="#4b545e"/>
  </g>

  <!-- Ratios table -->
  <text x="6.5" y="78.8" font-size="3.6" font-family="Arial, Helvetica, sans-serif" fill="#ffffff" font-weight="700">|20|61|20|48|47|115|153|114|16|</text>
  <text x="8.7" y="84.0" font-size="3.6" font-family="Arial, Helvetica, sans-serif" fill="#ffffff" font-weight="700">|40|1|45|22|92|47|3|94|2|</text>

  <!-- Output rows -->
  <g font-family="Arial, Helvetica, sans-serif" fill="#ffffff" font-weight="700" font-size="6">
    <!-- row 1 -->
    <circle cx="15.2" cy="99" r="8.3" fill="url(#jackMetal)" stroke="#e7edf0" stroke-width="1"/>
    <circle cx="15.2" cy="99" r="4.7" fill="url(#jackHole)"/>
    <circle cx="41.0" cy="99" r="8.3" fill="url(#jackMetal)" stroke="#e7edf0" stroke-width="1"/>
    <circle cx="41.0" cy="99" r="4.7" fill="url(#jackHole)"/>
    <text x="8.4" y="112.5">1A</text><text x="34.0" y="112.5">1B</text>
    <circle cx="15.2" cy="116" r="2.2" fill="#3465ff" stroke="#1632a1" stroke-width="0.7"/>
    <circle cx="41.0" cy="116" r="2.2" fill="#3465ff" stroke="#1632a1" stroke-width="0.7"/>

    <!-- row 2 -->
    <circle cx="15.2" cy="136" r="8.3" fill="url(#jackMetal)" stroke="#e7edf0" stroke-width="1"/>
    <circle cx="15.2" cy="136" r="4.7" fill="url(#jackHole)"/>
    <circle cx="41.0" cy="136" r="8.3" fill="url(#jackMetal)" stroke="#e7edf0" stroke-width="1"/>
    <circle cx="41.0" cy="136" r="4.7" fill="url(#jackHole)"/>
    <text x="8.4" y="149.5">2A</text><text x="34.0" y="149.5">2B</text>
    <circle cx="15.2" cy="153" r="2.2" fill="#3465ff" stroke="#1632a1" stroke-width="0.7"/>
    <circle cx="41.0" cy="153" r="2.2" fill="#3465ff" stroke="#1632a1" stroke-width="0.7"/>

    <!-- row 3 -->
    <circle cx="15.2" cy="173" r="8.3" fill="url(#jackMetal)" stroke="#e7edf0" stroke-width="1"/>
    <circle cx="15.2" cy="173" r="4.7" fill="url(#jackHole)"/>
    <circle cx="41.0" cy="173" r="8.3" fill="url(#jackMetal)" stroke="#e7edf0" stroke-width="1"/>
    <circle cx="41.0" cy="173" r="4.7" fill="url(#jackHole)"/>
    <text x="8.4" y="186.5">3A</text><text x="34.0" y="186.5">3B</text>
    <circle cx="15.2" cy="190" r="2.2" fill="#3465ff" stroke="#1632a1" stroke-width="0.7"/>
    <circle cx="41.0" cy="190" r="2.2" fill="#3465ff" stroke="#1632a1" stroke-width="0.7"/>

    <!-- row 4 -->
    <circle cx="15.2" cy="210" r="8.3" fill="url(#jackMetal)" stroke="#e7edf0" stroke-width="1"/>
    <circle cx="15.2" cy="210" r="4.7" fill="url(#jackHole)"/>
    <circle cx="41.0" cy="210" r="8.3" fill="url(#jackMetal)" stroke="#e7edf0" stroke-width="1"/>
    <circle cx="41.0" cy="210" r="4.7" fill="url(#jackHole)"/>
    <text x="8.4" y="223.5">4A</text><text x="34.0" y="223.5">4B</text>
    <circle cx="15.2" cy="227" r="2.2" fill="#3465ff" stroke="#1632a1" stroke-width="0.7"/>
    <circle cx="41.0" cy="227" r="2.2" fill="#3465ff" stroke="#1632a1" stroke-width="0.7"/>

    <!-- row 5 -->
    <circle cx="15.2" cy="247" r="8.3" fill="url(#jackMetal)" stroke="#e7edf0" stroke-width="1"/>
    <circle cx="15.2" cy="247" r="4.7" fill="url(#jackHole)"/>
    <circle cx="41.0" cy="247" r="8.3" fill="url(#jackMetal)" stroke="#e7edf0" stroke-width="1"/>
    <circle cx="41.0" cy="247" r="4.7" fill="url(#jackHole)"/>
    <text x="8.4" y="260.5">5A</text><text x="34.0" y="260.5">5B</text>
    <circle cx="15.2" cy="264" r="2.2" fill="#3465ff" stroke="#1632a1" stroke-width="0.7"/>
    <circle cx="41.0" cy="264" r="2.2" fill="#3465ff" stroke="#1632a1" stroke-width="0.7"/>

    <!-- row 6 -->
    <circle cx="15.2" cy="284" r="8.3" fill="url(#jackMetal)" stroke="#e7edf0" stroke-width="1"/>
    <circle cx="15.2" cy="284" r="4.7" fill="url(#jackHole)"/>
    <circle cx="41.0" cy="284" r="8.3" fill="url(#jackMetal)" stroke="#e7edf0" stroke-width="1"/>
    <circle cx="41.0" cy="284" r="4.7" fill="url(#jackHole)"/>
    <text x="8.4" y="297.5">6A</text><text x="34.0" y="297.5">6B</text>
    <circle cx="15.2" cy="301" r="2.2" fill="#3465ff" stroke="#1632a1" stroke-width="0.7"/>
    <circle cx="41.0" cy="301" r="2.2" fill="#3465ff" stroke="#1632a1" stroke-width="0.7"/>
  </g>

  <text x="36" y="372.5" font-size="5" font-family="Arial, Helvetica, sans-serif" fill="#ffffff" font-weight="700">Jol?n</text>
</svg>
